<?xml version="1.0" encoding="utf-8"?>
<!-- Generator: Adobe Illustrator 12.0.0, SVG Export Plug-In . SVG Version: 6.00 Build 51448)  -->
<!DOCTYPE svg PUBLIC "-//W3C//DTD SVG 1.1//EN" "http://www.w3.org/Graphics/SVG/1.1/DTD/svg11.dtd" [
	<!ENTITY ns_svg "http://www.w3.org/2000/svg">
	<!ENTITY ns_xlink "http://www.w3.org/1999/xlink">
]>
<svg  version="1.1" id="Layer_1" xmlns="&ns_svg;" xmlns:xlink="&ns_xlink;" width="602.384" height="160.725"
	 viewBox="0 0 602.384 160.725" overflow="visible" enable-background="new 0 0 602.384 160.725" xml:space="preserve">
<g>
	<rect x="31.813" y="75.274" fill="#703716" width="81.375" height="10.5"/>
	<rect x="119.896" y="73.482" fill="#2A2A2A" width="384.667" height="14"/>
	<rect x="115.813" y="71.024" fill="#57290E" width="4.5" height="19"/>
	<rect x="112.813" y="67.774" fill="#623112" width="3.75" height="25"/>
	<rect x="28.396" y="72.607" fill="#623112" width="3.75" height="15.5"/>
	<rect x="24.646" y="70.524" fill="#57290E" width="4.5" height="19"/>
	<path fill="#482210" d="M24.73,93.107h-4.5c0,0-20.23-3.144-20.23-13.27s20.23-13.48,20.23-13.48h4.5V93.107z"/>
	<path fill="#6D3520" d="M24.688,88.94h-3.193c0,0-14.354-2.139-14.354-9.032s14.354-9.176,14.354-9.176h3.193V88.94z"/>
	<path fill="#5E5E5E" d="M594.134,160.659c1.062-0.094,8.187-5.938,8.25-6.875s-7.666-13.624-8.25-16.792
		c-0.583-3.166-0.583-110.083,0-113.25s8.312-15.854,8.25-16.792s-7.188-6.781-8.25-6.875c-1.063-0.094-88.968-0.104-90.03-0.01
		s-8.188,5.938-8.25,6.875s7.667,13.625,8.25,16.792s0.583,110.084,0,113.251s-8.313,15.854-8.25,16.792s7.188,6.781,8.25,6.875
		S593.072,160.753,594.134,160.659z"/>
</g>
<g>
	<path fill="#59C6D4" d="M189.678,38.507c18.1,0,23.9,13.3,22.5,24.5c-1.4,11.8-9.8,23.5-32.3,23.5h-10.5l-3.7,29.8h-15.6l9.6-77.8
		H189.678z M174.178,73.307c8.5,0,20.6,1.4,22.1-10.8s-11-10.8-19.5-10.8h-3.2l-2.6,21.6H174.178z"/>
	<path fill="#59C6D4" d="M280.578,77.407c-2.4,19.6-14.8,40.101-37,40.101c-22.2,0-29.6-20.5-27.2-40.101
		c2.4-19.6,14.8-40.1,37-40.1S282.978,57.807,280.578,77.407z M232.377,77.407c-1.3,10-0.7,27.8,12.7,27.8
		c13.4,0,18.2-17.8,19.5-27.8c1.2-10,0.7-27.8-12.7-27.8S233.577,67.407,232.377,77.407z"/>
	<path fill="#59C6D4" d="M324.577,38.507c18.1,0,23.9,13.3,22.5,24.5c-1.4,11.8-9.8,23.5-32.3,23.5h-10.5l-3.7,29.8h-15.6l9.6-77.8
		H324.577z M309.077,73.307c8.5,0,20.6,1.4,22.1-10.8s-11-10.8-19.5-10.8h-3.2l-2.6,21.6H309.077z"/>
	<path fill="#59C6D4" d="M387.576,38.507c18.1,0,23.9,13.3,22.5,24.5c-1.4,11.8-9.8,23.5-32.3,23.5h-10.5l-3.7,29.8h-15.6l9.6-77.8
		H387.576z M372.076,73.307c8.5,0,20.6,1.4,22.1-10.8s-11-10.8-19.5-10.8h-3.2l-2.6,21.6H372.076z"/>
	<path fill="#59C6D4" d="M449.775,84.907l-3.9,31.4h-15.6l3.9-31.4l-19.8-46.4h16.6l12.6,34.2l21.6-34.2h16.1L449.775,84.907z"/>
</g>
</svg>
